<svg width="27" height="27" viewBox="0 0 27 27" fill="none" xmlns="http://www.w3.org/2000/svg">
<path d="M13.4895 6.54491C9.66021 6.54491 6.55808 9.64371 6.55808 13.4656C6.55808 17.2889 9.66021 20.3877 13.4895 20.3877C17.3158 20.3877 20.4209 17.2889 20.4209 13.4656C20.4209 9.64371 17.3158 6.54491 13.4895 6.54491ZM13.4895 17.9626C11.0021 17.9626 8.98551 15.9491 8.98551 13.4671C8.98551 10.9835 11.0021 8.97156 13.4895 8.97156C15.9769 8.97156 17.9905 10.9835 17.9905 13.4671C17.9905 15.9491 15.9769 17.9626 13.4895 17.9626Z" fill="white"/>
<path d="M20.6968 7.90419C21.5894 7.90419 22.3131 7.18168 22.3131 6.29042C22.3131 5.39916 21.5894 4.67665 20.6968 4.67665C19.8042 4.67665 19.0805 5.39916 19.0805 6.29042C19.0805 7.18168 19.8042 7.90419 20.6968 7.90419Z" fill="white"/>
<path d="M26.2848 4.6497C25.5816 2.83982 24.1498 1.40868 22.3371 0.709581C21.289 0.315868 20.181 0.10479 19.0595 0.0808382C17.6157 0.0179639 17.1584 0 13.497 0C9.83563 0 9.36634 -1.47916e-07 7.93447 0.0808382C6.81597 0.103293 5.70796 0.314371 4.65993 0.709581C2.84574 1.40868 1.41387 2.83982 0.712183 4.6497C0.317859 5.69761 0.106453 6.80239 0.0839627 7.92216C0.0194913 9.36228 0 9.81886 0 13.476C0 17.1317 -1.18333e-08 17.5973 0.0839627 19.0299C0.106453 20.1497 0.317859 21.2545 0.712183 22.3039C1.41537 24.1123 2.84723 25.5434 4.66143 26.244C5.70496 26.6512 6.81297 26.8817 7.93747 26.9177C9.38133 26.9805 9.83863 27 13.5 27C17.1614 27 17.6307 27 19.0625 26.9177C20.1825 26.8952 21.2905 26.6826 22.3401 26.2904C24.1528 25.5883 25.5846 24.1587 26.2878 22.3488C26.6821 21.3009 26.8935 20.1961 26.916 19.0763C26.9805 17.6362 27 17.1796 27 13.5225C27 9.86527 27 9.4012 26.916 7.96856C26.8965 6.83383 26.6866 5.70958 26.2848 4.6497ZM24.4586 18.9192C24.4481 19.7814 24.2922 20.6362 23.9923 21.4461C23.535 22.6243 22.604 23.5554 21.4255 24.0075C20.6233 24.3054 19.7777 24.4611 18.9216 24.4731C17.4972 24.5389 17.0954 24.5554 13.443 24.5554C9.78765 24.5554 9.41432 24.5554 7.96296 24.4731C7.10984 24.4626 6.26122 24.3054 5.46057 24.0075C4.2776 23.5569 3.34052 22.6257 2.88322 21.4461C2.58935 20.6467 2.43042 19.8009 2.41693 18.9476C2.35245 17.5254 2.33746 17.1243 2.33746 13.4775C2.33746 9.82934 2.33746 9.45659 2.41693 8.00599C2.42742 7.14371 2.58335 6.29042 2.88322 5.48054C3.34052 4.2994 4.2776 3.36976 5.46057 2.91766C6.26122 2.62126 7.10984 2.46407 7.96296 2.4521C9.38883 2.38772 9.78915 2.36976 13.443 2.36976C17.0969 2.36976 17.4717 2.36976 18.9216 2.4521C19.7777 2.46257 20.6233 2.61976 21.4255 2.91766C22.604 3.37126 23.535 4.30239 23.9923 5.48054C24.2862 6.27994 24.4451 7.12575 24.4586 7.97904C24.5231 9.40269 24.5396 9.8024 24.5396 13.4506C24.5396 17.0973 24.5396 17.4895 24.4751 18.9207H24.4586V18.9192Z" fill="white"/>
</svg>
